<svg width="472" height="24" viewBox="0 0 472 24" fill="none" xmlns="http://www.w3.org/2000/svg">
<path d="M9 3L11.5392 8.50505L17.5595 9.21885L13.1086 13.335L14.2901 19.2812L9 16.32L3.70993 19.2812L4.89144 13.335L0.440492 9.21885L6.46077 8.50505L9 3Z" fill="#EAC800"/>
<path d="M27 3L29.5392 8.50505L35.5595 9.21885L31.1086 13.335L32.2901 19.2812L27 16.32L21.7099 19.2812L22.8914 13.335L18.4405 9.21885L24.4608 8.50505L27 3Z" fill="#EAC800"/>
<path d="M45 3L47.5392 8.50505L53.5595 9.21885L49.1086 13.335L50.2901 19.2812L45 16.32L39.7099 19.2812L40.8914 13.335L36.4405 9.21885L42.4608 8.50505L45 3Z" fill="#EAC800"/>
<path d="M63 3L65.5392 8.50505L71.5595 9.21885L67.1086 13.335L68.2901 19.2812L63 16.32L57.7099 19.2812L58.8914 13.335L54.4405 9.21885L60.4608 8.50505L63 3Z" fill="#EAC800"/>
<path d="M81 4.19375L83.0852 8.71447L83.2024 8.96862L83.4804 9.00157L88.4242 9.58774L84.7691 12.9679L84.5636 13.1579L84.6182 13.4324L85.5884 18.3154L81.2442 15.8837L81 15.747L80.7558 15.8837L76.4116 18.3154L77.3818 13.4324L77.4364 13.1579L77.2309 12.9679L73.5758 9.58774L78.5196 9.00157L78.7976 8.96862L78.9148 8.71447L81 4.19375Z" fill="url(#paint0_linear_3_365)" stroke="#EAC800"/>
<rect x="102" width="56" height="24" rx="12" fill="#27AE60"/>
<path d="M124.913 18.778V16.552H120.615V15.18L125.403 9.006H126.453V15.152H127.685V16.552H126.453V18.778H124.913ZM122.183 15.152H125.081V11.358L122.183 15.152ZM129.063 17V15.208H130.337V17H129.063ZM139.085 13.696C139.085 14.172 138.992 14.62 138.805 15.04C138.628 15.46 138.376 15.8287 138.049 16.146C137.732 16.454 137.354 16.6967 136.915 16.874C136.477 17.0513 136.005 17.14 135.501 17.14C134.951 17.14 134.451 17.042 134.003 16.846C133.555 16.6407 133.173 16.3513 132.855 15.978C132.538 15.5953 132.291 15.1333 132.113 14.592C131.945 14.0413 131.861 13.4207 131.861 12.73C131.861 11.778 131.95 10.9473 132.127 10.238C132.314 9.51933 132.571 8.922 132.897 8.446C133.224 7.96067 133.621 7.59667 134.087 7.354C134.554 7.11133 135.077 6.99 135.655 6.99C136.29 6.99 136.869 7.13467 137.391 7.424C137.923 7.71333 138.353 8.124 138.679 8.656L137.769 9.608C137.555 9.216 137.256 8.908 136.873 8.684C136.5 8.45067 136.085 8.334 135.627 8.334C134.927 8.334 134.367 8.63267 133.947 9.23C133.537 9.818 133.322 10.6487 133.303 11.722C133.509 11.302 133.817 10.9707 134.227 10.728C134.638 10.4853 135.109 10.364 135.641 10.364C136.127 10.364 136.579 10.4527 136.999 10.63C137.419 10.798 137.783 11.0313 138.091 11.33C138.399 11.6287 138.642 11.9833 138.819 12.394C138.997 12.7953 139.085 13.2293 139.085 13.696ZM135.501 15.824C135.791 15.824 136.061 15.768 136.313 15.656C136.575 15.544 136.799 15.39 136.985 15.194C137.181 14.998 137.335 14.774 137.447 14.522C137.559 14.2607 137.615 13.9853 137.615 13.696C137.615 13.4067 137.559 13.136 137.447 12.884C137.335 12.632 137.181 12.4127 136.985 12.226C136.799 12.03 136.575 11.876 136.313 11.764C136.061 11.652 135.791 11.596 135.501 11.596C135.212 11.596 134.937 11.652 134.675 11.764C134.423 11.876 134.199 12.03 134.003 12.226C133.817 12.4127 133.667 12.632 133.555 12.884C133.443 13.136 133.387 13.4067 133.387 13.696C133.387 13.9853 133.443 14.2607 133.555 14.522C133.667 14.774 133.817 14.998 134.003 15.194C134.199 15.39 134.423 15.544 134.675 15.656C134.937 15.768 135.212 15.824 135.501 15.824Z" fill="#ECEFF1"/>
<defs>
<linearGradient id="paint0_linear_3_365" x1="73.5" y1="10" x2="88" y2="10" gradientUnits="userSpaceOnUse">
<stop offset="0.477927" stop-color="#EAC800"/>
<stop offset="0.536506" stop-color="#EAC800" stop-opacity="0"/>
</linearGradient>
</defs>
</svg>
